<svg xmlns="http://www.w3.org/2000/svg"  xmlns:xlink="http://www.w3.org/1999/xlink"  width="24" height="24" fill="none" id="svg-433493975_1414"><g clip-path="url(#svg-433493975_1414_a)"><path d="M23.866 14.053c-1.5-.284-3.142-.57-4.428-1.499-.357-.64.214-1.212.642-1.712 1.07-1.499 1.928-2.854 2.356-4.637.07-.5-.143-1.213-.715-1.142-1.142.998-2.57 1.783-4.07 1.997-.357.07-.57-.285-.641-.571-.214-1.997-.786-3.923-1.57-5.706-.215-.428-.643-.785-1.143-.785-.501.07-.358.714-.428 1.069-.285 1.285-.572 2.497-1.357 3.496-.214.284-.571.143-.856 0C9.872 3.278 8.228 2.138 6.16 1.567c-.357-.07-.642.07-.929.214-.286.143-.143.357-.143.5.785 1.356 1.785 2.498 1.998 4.067a.56.56 0 0 1-.57.57c-2.072.285-3.927.785-5.785 1.64-.5.285-.928.856-.642 1.427 1.5.213 2.928.5 4.284 1.355.285.143.428.428.285.714-.785 1.356-1.785 2.497-2.427 3.923-.284.642-.5 1.213-.714 1.854-.071.428.07.855.428 1.069.143.07.357.07.5-.07l.214-.214c.214-.07.358-.214.501-.357 1.07-.571 1.999-1.356 3.212-1.285.214 0 .428 0 .5.284.214.855.214 1.64.428 2.497.071.284.144.5.214.785.358.998.572 1.997 1.214 2.925.214.357.714.714 1.213.427.285-1.212.428-2.354.929-3.495.284-.5.57-1.285 1.213-.999.357.143.714.428 1.07.714 1.427 1.07 2.998 1.783 4.64 2.354.285.07.572 0 .786-.143.143-.143.5-.357.358-.571-.93-1.285-1.785-2.64-2.072-4.137.144-.57.785-.641 1.286-.641 1.855-.214 3.57-.785 5.283-1.64.358-.214.786-.855.428-1.285l.005.004Z" fill="#D9D9D9"></path></g><defs><clipPath id="svg-433493975_1414_a"><path fill="#fff" d="M0 0h24v24H0z"></path></clipPath></defs></svg>