<svg xmlns="http://www.w3.org/2000/svg"  xmlns:xlink="http://www.w3.org/1999/xlink"  width="24" height="24" fill="none" id="svg539243175_697"><g clip-path="url(#svg539243175_697_a)"><path d="M24 12c0-1.492-2.23-2.802-5.587-3.546.491-1.263.529-2.276 0-2.808-.532-.53-1.567-.493-2.848.013C14.82 2.263 13.502 0 12.001 0c-1.5 0-2.83 2.278-3.57 5.696-1.327-.541-2.392-.6-2.943-.05-.533.534-.494 1.556.007 2.828C2.189 9.222 0 10.521 0 12c0 1.48 2.224 2.797 5.574 3.544-.575 1.364-.648 2.465-.086 3.026.556.557 1.64.489 2.987-.07C9.222 21.808 10.522 24 12 24c1.479 0 2.768-2.175 3.518-5.46 1.302.523 2.35.574 2.891.03.56-.559.49-1.65-.077-3.004 3.401-.74 5.67-2.06 5.67-3.564L24 12Z" fill="#D9D9D9"></path></g><defs><clipPath id="svg539243175_697_a"><path fill="#fff" d="M0 0h24v24H0z"></path></clipPath></defs></svg>