<svg xmlns="http://www.w3.org/2000/svg"  xmlns:xlink="http://www.w3.org/1999/xlink"  width="30" height="24" fill="none" id="svg1447314111_884"><g clip-path="url(#svg1447314111_884_a)"><path fill-rule="evenodd" clip-rule="evenodd" d="M14.982 10.99c.094-.03.17-.1.213-.194.704-1.603 1.822-3.415 3.256-5.179 3.428-4.21 7.38-6.563 8.833-5.256 1.421 1.278-.087 5.595-3.367 9.728 3.404.2 5.89 1.326 6.072 2.979.222 1.986-2.95 4.066-7.338 4.973 1.443 2.386 1.849 4.686.85 5.584-1.237 1.113-4.156-.34-6.524-3.248a14.587 14.587 0 0 1-1.418-2.075l-.055-.052a.869.869 0 0 0-1.287.086c-.383.68-.854 1.37-1.4 2.041-2.368 2.907-5.287 4.36-6.523 3.248-1.005-.904-.588-3.226.872-5.622-4.292-.927-7.374-2.977-7.156-4.935.18-1.617 2.558-2.727 5.843-2.965-3.29-4.136-4.801-8.46-3.38-9.742 1.45-1.307 5.405 1.045 8.833 5.256 1.434 1.762 2.55 3.57 3.254 5.173a.34.34 0 0 0 .419.2h.003Z" fill="#D9D9D9"></path></g><defs><clipPath id="svg1447314111_884_a"><path fill="#fff" d="M0 0h30v24H0z"></path></clipPath></defs></svg>